<?xml version="1.0" encoding="UTF-8" standalone="no"?>
<svg
   viewBox="0.003136158 0.02837801 46.671002 46.671001"
   version="1.1"
   id="svg12"
   sodipodi:docname="XML Parser Tool Logo.svg"
   inkscape:version="1.2.2 (732a01da63, 2022-12-09)"
   width="46.671001"
   height="46.671001"
   inkscape:export-filename="XML Parser Tool Logo.png"
   inkscape:export-xdpi="524.52271"
   inkscape:export-ydpi="524.52271"
   xmlns:inkscape="http://www.inkscape.org/namespaces/inkscape"
   xmlns:sodipodi="http://sodipodi.sourceforge.net/DTD/sodipodi-0.dtd"
   xmlns="http://www.w3.org/2000/svg"
   xmlns:svg="http://www.w3.org/2000/svg">
  <defs
     id="defs16" />
  <sodipodi:namedview
     id="namedview14"
     pagecolor="#ffffff"
     bordercolor="#000000"
     borderopacity="0.25"
     inkscape:showpageshadow="2"
     inkscape:pageopacity="0.0"
     inkscape:pagecheckerboard="0"
     inkscape:deskcolor="#d1d1d1"
     showgrid="false"
     inkscape:zoom="16"
     inkscape:cx="20.65625"
     inkscape:cy="22.4375"
     inkscape:window-width="1920"
     inkscape:window-height="1009"
     inkscape:window-x="1912"
     inkscape:window-y="-8"
     inkscape:window-maximized="1"
     inkscape:current-layer="svg12" />
  <rect
     style="display:none;fill:#ffffff;fill-opacity:1"
     id="rect14106"
     width="46.671001"
     height="46.671001"
     x="-0.036672391"
     y="0.048282299" />
  <path
     d="M 36.286922,5.0359844 C 37.59047,3.1613153 40.042027,3.0747065 42.043861,3.5341738 46.361467,7.4136046 44.495022,15.484257 39.04056,17.3004 l -0.188476,0.07991 C 38.059566,15.283012 37.277602,13.190437 36.44969,11.115203 35.621786,9.0399876 34.652689,6.7994279 36.286922,5.0359804 Z M 1.6359809,34.198623 a 8.8527326,8.8527326 0 0 1 4.7272097,-4.620442 c 1.1732593,2.688247 2.1321928,5.457499 3.1829756,8.192032 A 4.1891351,4.1891351 0 0 1 7.8230739,43.04873 C 6.4071937,44.047373 4.619011,43.620882 3.0421164,43.429475 A 8.4477053,8.4477053 0 0 1 1.6359809,34.198623 Z"
     fill="#1059fe"
     id="path4"
     style="fill:#7ba4fe;fill-opacity:1;stroke-width:1.15722" />
  <path
     d="m 32.623349,1.2256913 a 8.2972673,8.2972673 0 0 1 9.39343,2.3113325 c -2.012394,-0.4642291 -4.463947,-0.3776201 -5.756944,1.5018113 -1.648525,1.7950882 -0.616818,4.1781993 0.173306,6.0839919 0.790116,1.905808 1.609871,4.167801 2.402391,6.265141 -1.936412,0.8017 -3.933756,1.372732 -5.887529,2.128493 A 12.729416,12.729416 0 0 1 18.857291,13.154269 54.956374,54.956374 0 0 1 16.616888,7.3177793 C 21.926047,5.2328749 27.296808,3.2646627 32.623349,1.2256913 Z M 12.712164,27.495358 a 12.729416,12.729416 0 0 1 13.738595,6.495242 32.494738,32.494738 0 0 1 2.076795,5.889576 C 23.149976,41.807235 17.8112,43.929555 12.481598,45.890966 A 8.5749994,8.5749994 0 0 1 3.0044769,43.427558 c 1.581655,0.180864 3.3698396,0.607344 4.7809578,-0.380729 a 4.1891351,4.1891351 0 0 0 1.7135749,-5.257435 c -1.050788,-2.73453 -2.0097259,-5.50378 -3.1829823,-8.19203 l 0.091842,-0.0348 c 2.0915488,-0.807823 4.2392607,-1.374444 6.3042727,-2.0673 z"
     fill="#fc62db"
     id="path6"
     style="fill:#fda8eb;fill-opacity:1;stroke-width:1.15722" />
  <path
     d="m 16.631541,7.2769903 0.0348,0.09184 a 54.956374,54.956374 0 0 0 2.240398,5.8364897 c 0.22512,3.072763 0.125017,6.303421 -1.465594,9.038841 -0.985759,2.183225 -3.028964,3.55886 -4.645179,5.254271 -2.088839,0.745562 -4.2365417,1.312193 -6.318573,2.098933 A 17.358293,17.358293 0 0 1 12.404285,9.6091376 22.531079,22.531079 0 0 1 16.631558,7.2769883 Z m 22.253353,10.1620507 0.18848,-0.07996 a 21.559007,21.559007 0 0 1 0.628097,9.463624 17.543456,17.543456 0 0 1 -11.090202,13.060591 32.494738,32.494738 0 0 0 -2.076781,-5.889583 c -0.229172,-2.782581 -0.318887,-5.705334 0.978132,-8.26859 1.055468,-2.646923 3.292891,-4.480833 5.484746,-6.157585 1.953773,-0.755756 3.951104,-1.326787 5.887528,-2.128485 z"
     fill="#2ae5cf"
     id="path2"
     style="display:inline;fill:#8af1e5;fill-opacity:1;stroke-width:1.15722" />
  <path
     d="m 10.151186,23.945342 v 0 2.194992 H 6.4005299 v 10.60556 H 4.2090995 V 26.140334 H 0.44067556 V 23.945342 H 4.2090995 6.4005299 Z m 6.528124,1.921521 v 0 q -0.895045,0 -1.701287,0.337431 -0.802697,0.337389 -1.445565,0.976727 v 0 q -0.639321,0.642855 -0.976747,1.44556 -0.337396,0.806233 -0.337396,1.701293 v 0 q 0,0.895047 0.337396,1.708408 0.337426,0.813362 0.976747,1.456214 v 0 q 0.642868,0.639298 1.445565,0.966076 0.806242,0.330303 1.701287,0.330303 v 0 q 0.895055,0 1.708388,-0.330303 0.813335,-0.326778 1.456238,-0.966076 v 0 q 0.639301,-0.642852 0.966078,-1.456214 0.330299,-0.813361 0.330299,-1.708408 v 0 q 0,-0.89506 -0.330299,-1.701293 -0.326777,-0.802705 -0.966078,-1.44556 v 0 Q 19.201033,26.541683 18.387698,26.204294 17.574365,25.866863 16.67931,25.866863 Z m 0,-2.194996 v 0 q 1.370985,0 2.585688,0.522104 1.218239,0.518543 2.123953,1.424256 0.90215,0.905714 1.42426,2.120413 0.5221,1.218243 0.5221,2.589234 v 0 q 0,1.370982 -0.5221,2.585683 -0.52211,1.218237 -1.42426,2.123954 -0.905714,0.902155 -2.123953,1.424252 -1.214703,0.522104 -2.585688,0.522104 v 0 q -1.370984,0 -2.589228,-0.522104 -1.214693,-0.522097 -2.1204,-1.424252 -0.905706,-0.905717 -1.424262,-2.123954 -0.522099,-1.214701 -0.522099,-2.585683 v 0 q 0,-1.370991 0.522099,-2.589234 0.518556,-1.214699 1.424262,-2.120413 0.905707,-0.905713 2.1204,-1.424256 1.218244,-0.522104 2.589228,-0.522104 z m 14.224807,2.194996 v 0 q -0.895071,0 -1.697727,0.337431 -0.806262,0.337389 -1.445585,0.976727 v 0 q -0.639301,0.642855 -0.980292,1.44556 -0.33741,0.806233 -0.33741,1.701293 v 0 q 0,0.895047 0.33741,1.708408 0.340991,0.813362 0.980292,1.456214 v 0 q 0.639323,0.639298 1.445585,0.966076 0.802656,0.330303 1.697727,0.330303 v 0 q 0.898585,0 1.71194,-0.330303 0.813354,-0.326778 1.45269,-0.966076 v 0 q 0.639299,-0.642852 0.969632,-1.456214 0.330311,-0.813361 0.330311,-1.708408 v 0 q 0,-0.89506 -0.330311,-1.701293 -0.330333,-0.802705 -0.969632,-1.44556 v 0 q -0.639336,-0.639338 -1.45269,-0.976727 -0.813355,-0.337431 -1.71194,-0.337431 z m 0,-2.194996 v 0 q 1.374548,0 2.589213,0.522104 1.214716,0.518543 2.120436,1.424256 0.905669,0.905714 1.427765,2.120413 0.518582,1.218243 0.518582,2.589234 v 0 q 0,1.370982 -0.518582,2.585683 -0.522096,1.218237 -1.427765,2.123954 -0.90572,0.902155 -2.120436,1.424252 -1.214665,0.522104 -2.589213,0.522104 v 0 q -1.370985,0 -2.585697,-0.522104 -1.214693,-0.522097 -2.120389,-1.424252 -0.905706,-0.905717 -1.42781,-2.123954 -0.522103,-1.214701 -0.522103,-2.585683 v 0 q 0,-1.370991 0.522103,-2.589234 0.522104,-1.214699 1.42781,-2.120413 0.905696,-0.905713 2.120389,-1.424256 1.214712,-0.522104 2.585697,-0.522104 z m 9.948487,10.879056 v 0 h 5.029293 v 2.194971 H 40.852604 38.657615 V 34.550923 23.963121 h 2.194989 z"
     id="path8"
     style="display:inline;stroke-width:0.355172" />
  <path
     d="m 6.0361494,15.549759 v 0 L 3.8763957,18.39099 6.0361494,21.232216 H 4.8164831 L 3.264814,19.194779 1.7166401,21.232216 H 0.49697349 L 2.6567289,18.39099 0.49697349,15.549759 H 1.7166414 l 1.5481726,2.037437 1.5516691,-2.037437 z m 4.9904886,-0.0067 v 0 h 1.065897 V 21.22552 H 11.117498 V 17.19607 L 9.2408257,20.096707 7.3746365,17.196069 v 4.029445 H 6.3996031 v -5.682477 h 1.0624004 l 1.7788222,2.757357 z m 2.607077,4.714413 v 0 h 2.233134 v 0.975014 H 13.633715 12.658679 V 20.257335 15.5569 h 0.975036 z m 6.423335,-4.707498 v 0 q 0.419367,0 0.793311,0.160765 0.373939,0.164251 0.650016,0.44034 0.276091,0.27608 0.440347,0.643028 0.160754,0.370447 0.160754,0.793309 v 0 q 0,0.422863 -0.160754,0.796802 -0.164256,0.370444 -0.440347,0.646529 -0.276077,0.276085 -0.650016,0.440341 -0.373944,0.160756 -0.793311,0.160756 v 0 H 19.242776 L 19.641175,18.6603 h 0.415875 q 0.436843,0 0.754862,-0.31802 v 0 q 0.314531,-0.318023 0.314531,-0.754864 v 0 q 0,-0.447329 -0.314531,-0.747874 v 0 Q 20.493893,16.525028 20.05705,16.525028 v 0 h -1.146277 v 4.707426 h -0.97504 v -5.6825 z m 4.917112,0 v 0 l 2.565145,5.68246 h -1.069392 l -0.440339,-0.975112 v 0 l -0.436849,-0.974975 v 0 l -1.153261,-2.5477 -1.153274,2.547671 h 1.478283 l 0.436841,0.975034 h -2.351959 l -0.440339,0.975007 h -1.069394 l 2.565141,-5.682484 z m 7.097833,2.037442 v 0 q 0,0.307539 -0.08741,0.587119 -0.08389,0.283074 -0.23415,0.517221 -0.150278,0.234149 -0.366948,0.42636 -0.213182,0.188716 -0.471789,0.311034 v 0 l 1.16026,1.803284 h -1.160241 l -1.034443,-1.600698 h -0.664 l 0.398399,-0.971539 h 0.422862 q 0.436842,0 0.75487,-0.318021 v 0 q 0.143294,-0.153774 0.227151,-0.349477 0.08039,-0.195707 0.08039,-0.405389 v 0 q 0,-0.209685 -0.08039,-0.40539 -0.08388,-0.195703 -0.227151,-0.342483 v 0 q -0.318027,-0.314569 -0.754869,-0.314569 v 0 h -1.153265 v 0.534702 1.600596 0.971537 1.600592 H 27.90625 v -1.600699 -2.572134 -1.50973 h 2.128298 q 0.41937,0 0.789818,0.160757 0.370439,0.164253 0.646526,0.440338 0.276084,0.276083 0.43684,0.643032 0.164259,0.370444 0.164259,0.793312 z m 4.529189,2.019964 v 0 q 0,0.398404 -0.129313,0.719915 -0.12932,0.321527 -0.370445,0.545186 -0.237642,0.223655 -0.58013,0.342488 -0.342487,0.122319 -0.761856,0.122319 v 0 q -0.674488,0 -1.202195,-0.213173 -0.527701,-0.21668 -0.870187,-0.492767 v 0 l 0.674485,-0.674502 q 0.269094,0.244636 0.601096,0.373941 v 0 q 0.202698,0.08038 0.380933,0.104787 0.178228,0.0244 0.293557,0.0244 v 0 q 0.209685,0 0.384422,-0.05248 0.174741,-0.05248 0.304045,-0.139811 v 0 q 0.276087,-0.206194 0.276087,-0.538196 v 0 q 0,-0.202697 -0.146779,-0.363453 v 0 q -0.111812,-0.12932 -0.290071,-0.213184 v 0 q -0.146781,-0.08039 -0.307537,-0.129318 -0.16425,-0.04897 -0.29356,-0.0874 v 0 q -0.04192,-0.01755 -0.07337,-0.02106 -0.03143,-0.0042 -0.05599,-0.02086 v 0 q -0.01734,0 -0.04896,-0.01756 v 0 q -0.171245,-0.04896 -0.492762,-0.167746 -0.321512,-0.122325 -0.636043,-0.335492 v 0 q -0.740869,-0.492756 -0.740869,-1.216166 v 0 q 0,-0.478783 0.16775,-0.807289 0.167751,-0.328506 0.433351,-0.538192 0.269094,-0.206189 0.5976,-0.293558 0.32851,-0.09091 0.646531,-0.09091 v 0 q 0.583624,0 0.982022,0.136305 0.398403,0.139817 0.632553,0.27609 v 0 q 0.122324,0.07336 0.20619,0.143282 0.0874,0.06985 0.150263,0.125817 v 0 l -0.688454,0.698952 q -0.220156,-0.220179 -0.447313,-0.332009 v 0 q -0.338961,-0.164205 -0.712898,-0.164205 v 0 q -0.164252,0 -0.325014,0.04195 -0.16425,0.03843 -0.286573,0.104777 v 0 q -0.35646,0.22017 -0.35646,0.576636 v 0 q 0,0.22017 0.14678,0.373938 v 0 q 0.104798,0.122322 0.293558,0.220172 v 0 q 0.153772,0.08038 0.325007,0.129317 0.167747,0.04897 0.314533,0.0874 v 0 l 0.09793,0.02439 q 0.04193,0.01757 0.153774,0.04897 0.115317,0.03142 0.269092,0.09774 0.153777,0.06634 0.335495,0.153778 0.185223,0.09091 0.363453,0.213172 v 0 q 0.786325,0.517229 0.786325,1.223164 z m 4.312532,-3.082388 v 0 h -2.851731 v 1.380426 h 2.11782 l 0.244622,0.97154 h -2.362442 v 1.380423 h 2.851731 v 0.974979 h -3.82676 v -5.682542 h 3.82676 z m 4.689927,1.062401 v 0 q 0,0.307539 -0.08388,0.587118 -0.08389,0.283074 -0.234133,0.517225 -0.150279,0.234147 -0.366991,0.426358 -0.216665,0.188717 -0.475266,0.311033 v 0 l 1.160252,1.803259 h -1.160234 l -1.030954,-1.600649 h -0.664003 l 0.394915,-0.971546 h 0.422847 q 0.440357,0 0.754869,-0.31802 v 0 q 0.146781,-0.153769 0.227162,-0.349469 0.08389,-0.195711 0.08389,-0.405389 v 0 q 0,-0.209691 -0.08389,-0.405398 -0.08039,-0.195705 -0.227162,-0.342485 v 0 q -0.314506,-0.31458 -0.754864,-0.31458 v 0 h -1.153245 v 0.534697 1.600594 0.971537 1.600594 h -0.97154 v -1.60061 -2.572131 -1.509729 h 2.124788 q 0.422866,0 0.793319,0.160756 0.36694,0.16425 0.643046,0.440341 0.27606,0.276081 0.440306,0.643031 0.160762,0.370442 0.160762,0.793309 z"
     id="path10"
     style="display:inline;stroke-width:0.349467" />
</svg>
